<?xml version="1.0" encoding="utf-8"?>
<svg version="1.1" xmlns:xlink="http://www.w3.org/1999/xlink" width="12px" height="12px" viewBox="340 1080  12 12" xmlns="http://www.w3.org/2000/svg">
  <path d="M 346 1080  C 349.36 1080  352 1082.64  352 1086  C 352 1089.36  349.36 1092  346 1092  C 342.64 1092  340 1089.36  340 1086  C 340 1082.64  342.64 1080  346 1080  Z " fill-rule="nonzero" fill="#ffffff" stroke="none" />
  <path d="M 346 1080.5  C 349.08 1080.5  351.5 1082.92  351.5 1086  C 351.5 1089.08  349.08 1091.5  346 1091.5  C 342.92 1091.5  340.5 1089.08  340.5 1086  C 340.5 1082.92  342.92 1080.5  346 1080.5  Z " stroke-width="1" stroke="#797979" fill="none" />
  <path d="M 346 1089  C 344.32 1089  343 1087.68  343 1086  C 343 1084.32  344.32 1083  346 1083  C 347.68 1083  349 1084.32  349 1086  C 349 1087.68  347.68 1089  346 1089  " fill-rule="nonzero" fill="#797979" stroke="none" />
</svg>