<?xml version="1.0" encoding="utf-8"?>
<svg version="1.1" xmlns:xlink="http://www.w3.org/1999/xlink" width="12px" height="12px" viewBox="390 1080  12 12" xmlns="http://www.w3.org/2000/svg">
  <path d="M 396 1080  C 399.36 1080  402 1082.64  402 1086  C 402 1089.36  399.36 1092  396 1092  C 392.64 1092  390 1089.36  390 1086  C 390 1082.64  392.64 1080  396 1080  Z " fill-rule="nonzero" fill="#ffffff" stroke="none" />
  <path d="M 396 1080.5  C 399.08 1080.5  401.5 1082.92  401.5 1086  C 401.5 1089.08  399.08 1091.5  396 1091.5  C 392.92 1091.5  390.5 1089.08  390.5 1086  C 390.5 1082.92  392.92 1080.5  396 1080.5  Z " stroke-width="1" stroke="#797979" fill="none" />
  <path d="M 396 1089  C 394.32 1089  393 1087.68  393 1086  C 393 1084.32  394.32 1083  396 1083  C 397.68 1083  399 1084.32  399 1086  C 399 1087.68  397.68 1089  396 1089  " fill-rule="nonzero" fill="#797979" stroke="none" />
</svg>